<?xml version="1.0" standalone="no"?><!DOCTYPE svg PUBLIC "-//W3C//DTD SVG 1.1//EN" "http://www.w3.org/Graphics/SVG/1.1/DTD/svg11.dtd"><svg t="1554305574378" class="icon" style="" viewBox="0 0 1024 1024" version="1.1" xmlns="http://www.w3.org/2000/svg" p-id="2343" xmlns:xlink="http://www.w3.org/1999/xlink" width="32" height="32"><defs><style type="text/css"></style></defs><path d="M998.3 735l-0.1-0.1c-10-10.8-46.3-48.5-92-79.7-29.1-19.8-56.7-33.4-82.1-40.3-33.9-9.2-64.2-6.7-90.1 7.4-19 10.4-34.4 24.5-48 37-27.2 24.9-38.2 32.9-55.1 24.3-22.7-11.5-99.7-73.6-173.5-148.4-38.3-38.8-69.5-74.9-90.3-104.4-31.2-44.3-30.7-61.7-29.9-66 1.6-7.8 11.7-21.7 21.4-35.1 24-33 56.9-78.3 42.2-131.6-13.3-48.2-43.2-96-84.2-134.5C277.9 27.2 235 5.4 201.9 5.4c-35.5 0-81.5 23-122.9 61.7-19.3 17.9-35.6 37.7-47.2 57.1-13.6 22.7-20.5 44.2-20.5 63.9 0.1 82.9 26.7 170.7 79.3 261 46.2 79.4 111.4 159.4 193.8 237.8 143.1 136.1 332.8 259.8 495 322.8 15 5.8 30.4 8.7 45.9 8.7 21.6 0 43.3-5.6 64.5-16.7 30.1-15.8 58.3-42.3 81.6-76.6 21.7-32 37.1-67.8 43.4-101 7.3-38.8 1.6-69.6-16.5-89.1z m-60 167.6c-15.9 23.4-73.2 97.5-144.5 69.8-157.7-61.2-342.4-181.7-481.9-314.5C193.1 544.9 51.4 371.6 51.2 188c0-24.5 21.6-60.5 55-91.7 32.7-30.5 71.2-50.9 95.7-50.9 22.4 0 56.7 18.6 87.4 47.4 35.2 33.1 61.8 75.4 73 116 9.6 34.8-14.6 68.1-36 97.5-13.4 18.4-24.9 34.3-28.3 50.5-5 24 6.6 54.8 36.3 97.1 22 31.3 54.7 69.2 94.5 109.5 67 68 151.3 139.4 183.9 156 19.5 9.9 39.2 10.3 58.6 1.1 15.1-7.2 28-19 41.7-31.5 12.5-11.5 25.5-23.4 40.2-31.4 62.1-34 164.8 49.8 215.7 104.6l0.1 0.1c17.6 18.9 9.4 81.2-30.7 140.3z" fill="#1296db" p-id="2344"></path><path d="M516.8 315.2c46.3 1.4 89.2 19.8 120.8 51.8 31.4 31.7 47.9 73.1 46.6 116.4-0.3 11 8.3 20.3 19.4 20.6h0.6c10.8 0 19.6-8.6 20-19.4 1.7-54.4-18.9-106.2-58.1-145.8-38.9-39.3-91.4-61.9-148-63.7h-0.6c-10.8 0-19.6 8.6-20 19.4-0.4 11.1 8.3 20.3 19.3 20.7zM568.3 195.9c142.7 4.4 255.5 118 251.3 253.1-0.3 11 8.3 20.3 19.4 20.6h0.6c10.8 0 19.6-8.6 20-19.4C862 373.8 833 301.1 778 245.5c-54.7-55.3-128.7-87.2-208.4-89.6-11-0.4-20.3 8.3-20.6 19.4-0.4 11 8.3 20.2 19.3 20.6z" fill="#1296db" p-id="2345"></path></svg>